/vscmnt/brussel_pixiu_data/_data_brussel/112/vsc11236/PredSimResults/SUBJ04opt3D/expIG/worker_12.mot
version=1
nRows=11
nColumns=50
inDegrees=yes
endheader
                time	         pelvis_tilt	         pelvis_list	     pelvis_rotation	           pelvis_tx	           pelvis_ty	           pelvis_tz	       hip_flexion_r	     hip_adduction_r	      hip_rotation_r	        knee_angle_r	       ankle_angle_r	         mtp_angle_r	       hip_flexion_l	     hip_adduction_l	      hip_rotation_l	        knee_angle_l	       ankle_angle_l	         mtp_angle_l	    lumbar_extension	      lumbar_bending	     lumbar_rotation	 ercspn_r/activation	 intobl_r/activation	 extobl_r/activation	    abd_r/activation	    add_r/activation	hamstrings_r/activation	bifemsh_r/activation	glut_max_r/activation	iliopsoas_r/activation	rect_fem_r/activation	  vasti_r/activation	gastroc_r/activation	 soleus_r/activation	tib_ant_r/activation	 ercspn_l/activation	 intobl_l/activation	 extobl_l/activation	    abd_l/activation	    add_l/activation	hamstrings_l/activation	bifemsh_l/activation	glut_max_l/activation	iliopsoas_l/activation	rect_fem_l/activation	  vasti_l/activation	gastroc_l/activation	 soleus_l/activation	tib_ant_l/activation	
          1.30745053	         -5.76500743	          1.37196315	         -5.81483830	          2.22266590	          0.87003195	          0.00307934	        -14.46221585	         -1.08600965	         -4.94830753	        -11.78491417	          4.40540494	         35.33788260	         36.63869858	          0.06906895	         -4.89529571	        -17.66150679	         11.11321250	          0.34240945	        -12.14073522	         -1.56335240	         11.29741166	          0.09185745	          0.00999999	          0.00999999	          0.02256587	          0.04640261	          0.03339983	          0.24530450	          0.01720420	          0.34994340	          0.00999999	          0.01502193	          0.30028493	          0.19676126	          0.00999999	          0.14269018	          0.12747168	          0.01720420	          0.01145271	          0.39084392	          0.22768096	          0.04610547	          0.00999999	          0.18513794	          0.01647219	          0.09270820	          0.01145271	          0.01145271	          0.48533470	
          1.31616687	         -5.77270765	          1.45505818	         -5.62754468	          2.24041462	          0.86761240	          0.00275066	        -14.57048481	         -1.31859638	         -5.44901566	        -13.68854475	          3.59284267	         36.99341942	         36.37807802	          0.51290871	         -4.75042267	        -18.29691245	         10.64067892	          0.34204206	        -11.73381490	         -1.98181950	         11.50555469	          0.10365074	          0.00999999	          0.00999999	          0.01970350	          0.06555971	          0.07958629	          0.21418880	          0.01502193	          0.32529243	          0.00999999	          0.01311647	          0.26219523	          0.17180304	          0.00999999	          0.12459062	          0.11130251	          0.01502193	          0.00999999	          0.40511644	          0.20614252	          0.04025721	          0.03476242	          0.16165408	          0.01438277	          0.19111800	          0.00999999	          0.00999999	          0.52331415	
          1.32488320	         -5.76911836	          1.57311101	         -5.43209599	          2.25832968	          0.86518295	          0.00240956	        -14.47127223	         -1.61876422	         -5.95250887	        -16.00758359	          2.76477348	         38.45223211	         35.96590468	          0.92408045	         -4.40813857	        -19.39545490	         10.17493341	          0.28447139	        -11.31456804	         -2.43885768	         11.66888421	          0.09814640	          0.01197618	          0.00999999	          0.01720420	          0.12343068	          0.06949115	          0.18701998	          0.01311647	          0.28403065	          0.00999999	          0.01145271	          0.22893703	          0.15001065	          0.00999999	          0.10878690	          0.09718432	          0.01311647	          0.06700417	          0.35372937	          0.18435457	          0.03515078	          0.03035298	          0.14114904	          0.01255838	          0.25345597	          0.02584407	          0.03389833	          0.53235148	
          1.33359954	         -5.75879766	          1.73798451	         -5.22505961	          2.27627605	          0.86287996	          0.00202089	        -14.12884650	         -2.00598374	         -6.46217540	        -18.76662875	          1.89180880	         39.58823790	         35.35158061	          1.35835832	         -4.05644967	        -20.34689913	         10.01719387	          0.26574452	        -10.89767383	         -2.94258368	         11.77922259	          0.08569700	          0.01045706	          0.00999999	          0.01502193	          0.10777409	          0.06067653	          0.16329740	          0.01145271	          0.34353668	          0.00999999	          0.00999999	          0.19989747	          0.13098252	          0.00999999	          0.09498780	          0.08485696	          0.01145271	          0.15113096	          0.30886050	          0.16097008	          0.03069207	          0.14503012	          0.12324496	          0.01096541	          0.26334131	          0.02256587	          0.02959849	          0.61504757	
          1.34231588	         -5.74506209	          1.91939894	         -4.98907252	          2.29399668	          0.86087510	          0.00155781	        -13.48251690	         -2.45457048	         -6.98113933	        -22.04333402	          1.01450428	         40.10886944	         34.66461280	          1.80210582	         -3.78945659	        -21.12876828	          9.69059464	          0.23880187	        -10.51939532	         -3.45704584	         11.82225532	          0.09846472	          0.00999999	          0.00999999	          0.01311647	          0.09410347	          0.05298001	          0.14258391	          0.00999999	          0.31393072	          0.00999999	          0.00999999	          0.17454143	          0.11436802	          0.03426473	          0.08293906	          0.07409326	          0.00999999	          0.21820465	          0.26968303	          0.14055180	          0.02679893	          0.13230487	          0.10761193	          0.00999999	          0.36623174	          0.01970350	          0.02584407	          0.63243802	
          1.35103221	         -5.72885079	          2.10571793	         -4.72128916	          2.31129759	          0.85931497	          0.00103413	        -12.49736301	         -2.96043219	         -7.50496142	        -25.86570475	          0.13910191	         39.77365678	         34.00606526	          2.23358626	         -3.61026637	        -21.95026056	          9.52653671	          0.19190080	        -10.20610416	         -3.97006663	         11.79372920	          0.17633124	          0.00999999	          0.00999999	          0.01145271	          0.13738011	          0.04625975	          0.12449782	          0.00999999	          0.27411012	          0.00999999	          0.00999999	          0.15240169	          0.09986099	          0.10324594	          0.07241864	          0.06469489	          0.00999999	          0.28884807	          0.27162388	          0.12272348	          0.02339961	          0.15359782	          0.09396188	          0.00999999	          0.46389516	          0.01720420	          0.02256587	          0.63460494	
          1.35974855	         -5.71223703	          2.29759397	         -4.42597798	          2.32805099	          0.85834130	          0.00047749	        -11.17072700	         -3.52673874	         -8.02679457	        -30.18924607	         -0.74251609	         38.37684843	         33.37756333	          2.64792257	         -3.52066826	        -22.81932038	          9.65886627	          0.15426933	         -9.97068719	         -4.48149550	         11.69547963	          0.21362826	          0.00999999	          0.00999999	          0.00999999	          0.28091136	          0.04039192	          0.10870587	          0.00999999	          0.23934057	          0.00999999	          0.00999999	          0.13307027	          0.08719410	          0.17891741	          0.06323268	          0.05648865	          0.00999999	          0.32692351	          0.27285110	          0.10715660	          0.02043148	          0.13411468	          0.08204326	          0.00999999	          0.53282018	          0.01502193	          0.01970350	          0.63108507	
          1.36846489	         -5.69663666	          2.47387253	         -4.10331063	          2.34421296	          0.85801059	         -0.00008118	         -9.54777772	         -4.11988361	         -8.51900771	        -34.89119549	         -1.57985888	         35.82285578	         32.72617141	          3.03241181	         -3.47941487	        -23.60963252	          9.94766875	          0.12888783	         -9.81737027	         -4.96687251	         11.52925779	          0.24524095	          0.00999999	          0.00999999	          0.00999999	          0.33806118	          0.03526840	          0.09491706	          0.00999999	          0.20898137	          0.00999999	          0.00999999	          0.11619095	          0.07613395	          0.31997188	          0.05521192	          0.04932334	          0.00999999	          0.34612515	          0.27102643	          0.10667102	          0.01783985	          0.11710288	          0.07163647	          0.00999999	          0.55597627	          0.01311647	          0.01720420	          0.59468198	
          1.37718122	         -5.68270341	          2.63092671	         -3.75612695	          2.35979898	          0.85828926	         -0.00059373	         -7.70985904	         -4.68868340	         -8.90763382	        -39.78955976	         -2.12852961	         32.22967163	         32.01676970	          3.38874032	         -3.44824862	        -24.26063606	         10.39119077	          0.10619083	         -9.74121894	         -5.42369990	         11.29582600	          0.25235220	          0.01621022	          0.00999999	          0.00999999	          0.29517975	          0.03079477	          0.08287728	          0.00999999	          0.18247309	          0.07009118	          0.00999999	          0.10145268	          0.06647672	          0.29890412	          0.04820855	          0.04306691	          0.00999999	          0.36068873	          0.23664803	          0.09314031	          0.01557695	          0.10224894	          0.06254973	          0.00999999	          0.55424702	          0.01145271	          0.01502193	          0.54132736	
          1.38589756	         -5.67130525	          2.77537163	         -3.38516823	          2.37486299	          0.85914462	         -0.00101355	         -5.75453329	         -5.17840680	         -9.16075275	        -44.63907208	         -1.81240854	         28.81336552	         31.23472336	          3.73005399	         -3.38589113	        -24.74889939	         10.97821855	          0.10805116	         -9.73340183	         -5.86187344	         10.99159596	          0.22766231	          0.01415404	          0.00999999	          0.00999999	          0.26881221	          0.02688860	          0.08222329	          0.00999999	          0.17001389	          0.18520268	          0.00999999	          0.08858390	          0.05804447	          0.33224102	          0.04209353	          0.03760408	          0.00999999	          0.35158700	          0.20663037	          0.09360302	          0.01360109	          0.08927915	          0.05461560	          0.00999999	          0.52897349	          0.00999999	          0.01311647	          0.49150429	
          1.39461390	         -5.66234458	          2.89267271	         -2.99004554	          2.38948735	          0.86057195	         -0.00133301	         -3.74333951	         -5.56177126	         -9.31310899	        -49.21035978	         -1.19827663	         25.80237990	         30.36216941	          4.04564841	         -3.27068084	        -25.02444741	         11.54186233	          0.14158676	         -9.78661074	         -6.26446488	         10.61802053	          0.19878444	          0.01235866	          0.05074958	          0.00999999	          0.27158250	          0.02347791	          0.12089554	          0.00999999	          0.15780737	          0.28295896	          0.00999999	          0.07734746	          0.05068181	          0.32832249	          0.03675417	          0.03283418	          0.00999999	          0.30960106	          0.18042030	          0.10147218	          0.01311651	          0.07795452	          0.04768787	          0.00999999	          0.49260734	          0.00999999	          0.01145271	          0.44426540	
